<svg xmlns="http://www.w3.org/2000/svg" xmlns:xlink="http://www.w3.org/1999/xlink" xmlns:lucid="lucid" width="1560" height="1320"><g transform="translate(-60 -60)" lucid:page-tab-id="0_0"><path d="M80 80h480v320H80z" stroke="#000" stroke-width="2" fill="none"/><path d="M80 80h480v40H80z" stroke="#000" stroke-width="2" fill="#fff"/><path d="M524 84h32v32h-32zM532 92l16 16m0-16l-16 16M488 84h32v32h-32z" stroke="#000" stroke-width="2" fill="none"/><path d="M496 92h16v16h-16zM452 84h32v32h-32zM476 108h-16" stroke="#000" stroke-width="2" fill="none"/><use xlink:href="#a" transform="matrix(1,0,0,1,100,80) translate(170.075 23.6)"/><use xlink:href="#b" transform="matrix(1,0,0,1,100,80) translate(219.075 23.6)"/><path d="M720 80h880v555H720z" stroke="#000" stroke-width="2" fill="none"/><path d="M720 80h880v40H720z" stroke="#000" stroke-width="2" fill="#fff"/><path d="M1564 84h32v32h-32zM1572 92l16 16m0-16l-16 16M1528 84h32v32h-32z" stroke="#000" stroke-width="2" fill="none"/><path d="M1536 92h16v16h-16zM1492 84h32v32h-32zM1516 108h-16" stroke="#000" stroke-width="2" fill="none"/><use xlink:href="#c" transform="matrix(1,0,0,1,740,80) translate(369.25 23.6)"/><use xlink:href="#d" transform="matrix(1,0,0,1,740,80) translate(419.85 23.6)"/><path d="M720 480h880v160H720z" stroke="#000" stroke-width="2" fill="#fff"/><use xlink:href="#e" transform="matrix(1,0,0,1,730,496) translate(379.125 14.4)"/><use xlink:href="#f" transform="matrix(1,0,0,1,730,496) translate(414.975 14.4)"/><path d="M730 520h165v110H730zM910 520h165v110H910zM1090 520h165v110h-165zM1270 520h165v110h-165zM1450 520h150v110h-150zM720 440h880v40H720z" stroke="#000" stroke-width="2" fill="#fff"/><use xlink:href="#g" transform="matrix(1,0,0,1,730,444) translate(343.6 20.1)"/><use xlink:href="#h" transform="matrix(1,0,0,1,730,444) translate(383.55 20.1)"/><use xlink:href="#i" transform="matrix(1,0,0,1,730,444) translate(393.55 20.1)"/><use xlink:href="#j" transform="matrix(1,0,0,1,730,444) translate(449.55 20.1)"/><path d="M720 120h880v256H720z" stroke="#000" stroke-width="2" fill="#fff"/><path d="M720 376h880v64H720z" stroke="#000" stroke-width="2" fill="#ababab"/><path d="M792 400h736c4.42 0 8 3.58 8 8s-3.58 8-8 8H792c-4.42 0-8-3.58-8-8s3.58-8 8-8z"/><path d="M1117.44 200l85.12 48-85.12 48z" stroke="#000" stroke-width="2" fill="#ababab"/><path d="M736 392l32 16-32 16zM1584 392l-32 16 32 16z"/><path d="M1552 400h16v16h-16z"/><path d="M1016 408c0 8.84-7.16 16-16 16s-16-7.16-16-16 7.16-16 16-16 16 7.16 16 16z" stroke="#000" stroke-width="2" fill="#fff"/><path d="M562 240h138.5" stroke="#000" stroke-width="2" fill="none"/><path d="M562.03 241H561v-2h1.03z"/><path d="M715.76 240l-14.26 4.64v-9.28z" stroke="#000" stroke-width="2"/><path d="M720 718.75h880v635.52H720z" stroke="#000" stroke-width="2" fill="none"/><path d="M720 718.75h880v40H720z" stroke="#000" stroke-width="2" fill="#fff"/><path d="M1564 722.75h32v32h-32zM1572 730.75l16 16m0-16l-16 16M1528 722.75h32v32h-32z" stroke="#000" stroke-width="2" fill="none"/><path d="M1536 730.75h16v16h-16zM1492 722.75h32v32h-32zM1516 746.75h-16" stroke="#000" stroke-width="2" fill="none"/><use xlink:href="#c" transform="matrix(1,0,0,1,740,718.75) translate(369.25 23.6)"/><use xlink:href="#d" transform="matrix(1,0,0,1,740,718.75) translate(419.85 23.6)"/><path d="M720 1176.8h880V1360H720z" stroke="#000" stroke-width="2" fill="#fff"/><use xlink:href="#e" transform="matrix(1,0,0,1,730,1195.107142857143) translate(379.125 14.4)"/><use xlink:href="#f" transform="matrix(1,0,0,1,730,1195.107142857143) translate(414.975 14.4)"/><path d="M730 1222.6h165v125.95H730zM910 1222.6h165v125.95H910zM1090 1222.6h165v125.95h-165zM1270 1222.6h165v125.95h-165zM1450 1222.6h150v125.95h-150zM720 1130.98h880v45.8H720z" stroke="#000" stroke-width="2" fill="#fff"/><use xlink:href="#g" transform="matrix(1,0,0,1,730,1135.5625) translate(343.6 22.1)"/><use xlink:href="#h" transform="matrix(1,0,0,1,730,1135.5625) translate(383.55 22.1)"/><use xlink:href="#i" transform="matrix(1,0,0,1,730,1135.5625) translate(393.55 22.1)"/><use xlink:href="#j" transform="matrix(1,0,0,1,730,1135.5625) translate(449.55 22.1)"/><path d="M720 760h440v296.8H720z" stroke="#000" stroke-width="2" fill="#fff"/><path d="M720 1056.8h440v74.18H720z" stroke="#000" stroke-width="2" fill="#ababab"/><path d="M803.47 1084.6h273.06c5.12 0 9.27 4.16 9.27 9.28 0 5.13-4.15 9.28-9.27 9.28H803.47c-5.12 0-9.27-4.15-9.27-9.28 0-5.12 4.15-9.27 9.27-9.27z"/><path d="M890.66 852.75l98.68 55.64-98.68 55.64z" stroke="#000" stroke-width="2" fill="#ababab"/><path d="M738.55 1075.33l37.1 18.55-37.1 18.55zM1141.45 1075.33l-37.1 18.55 37.1 18.55z"/><path d="M1104.35 1084.6h18.55v18.56h-18.55z"/><path d="M889.1 1093.88c0 10.25-8.3 18.55-18.55 18.55s-18.55-8.3-18.55-18.55c0-10.24 8.3-18.55 18.55-18.55 10.24 0 18.55 8.3 18.55 18.55zM1160 760h440v296.8h-440z" stroke="#000" stroke-width="2" fill="#fff"/><path d="M1160 1056.8h440v74.18h-440z" stroke="#000" stroke-width="2" fill="#ababab"/><path d="M1243.47 1084.6h273.06c5.12 0 9.27 4.16 9.27 9.28 0 5.13-4.15 9.28-9.27 9.28h-273.06c-5.12 0-9.27-4.15-9.27-9.28 0-5.12 4.15-9.27 9.27-9.27z"/><path d="M1330.66 852.75l98.68 55.64-98.68 55.64z" stroke="#000" stroke-width="2" fill="#ababab"/><path d="M1178.55 1075.33l37.1 18.55-37.1 18.55zM1581.45 1075.33l-37.1 18.55 37.1 18.55z"/><path d="M1544.35 1084.6h18.55v18.56h-18.55z"/><path d="M1329.1 1093.88c0 10.25-8.3 18.55-18.55 18.55s-18.55-8.3-18.55-18.55c0-10.24 8.3-18.55 18.55-18.55 10.24 0 18.55 8.3 18.55 18.55zM440 920h260v160H440z" stroke="#000" stroke-width="2" fill="#fff"/><g><use xlink:href="#k" transform="matrix(1,0,0,1,445,925) translate(0.75 23.775)"/><use xlink:href="#l" transform="matrix(1,0,0,1,445,925) translate(52.7 23.775)"/><use xlink:href="#m" transform="matrix(1,0,0,1,445,925) translate(119.50000000000001 23.775)"/><use xlink:href="#n" transform="matrix(1,0,0,1,445,925) translate(160.4 23.775)"/><use xlink:href="#o" transform="matrix(1,0,0,1,445,925) translate(191.35 23.775)"/><use xlink:href="#p" transform="matrix(1,0,0,1,445,925) translate(4.125 45.375)"/><use xlink:href="#q" transform="matrix(1,0,0,1,445,925) translate(42.075 45.375)"/><use xlink:href="#r" transform="matrix(1,0,0,1,445,925) translate(66.075 45.375)"/><use xlink:href="#s" transform="matrix(1,0,0,1,445,925) translate(109.025 45.375)"/><use xlink:href="#t" transform="matrix(1,0,0,1,445,925) translate(148.925 45.375)"/><use xlink:href="#h" transform="matrix(1,0,0,1,445,925) translate(186.875 45.375)"/><use xlink:href="#u" transform="matrix(1,0,0,1,445,925) translate(196.875 45.375)"/><use xlink:href="#v" transform="matrix(1,0,0,1,445,925) translate(23.599999999999994 66.97500000000001)"/><use xlink:href="#w" transform="matrix(1,0,0,1,445,925) translate(91.5 66.97500000000001)"/><use xlink:href="#x" transform="matrix(1,0,0,1,445,925) translate(149.45 66.97500000000001)"/><use xlink:href="#y" transform="matrix(1,0,0,1,445,925) translate(174.45000000000002 66.97500000000001)"/><use xlink:href="#z" transform="matrix(1,0,0,1,445,925) translate(7.200000000000003 88.57500000000002)"/><use xlink:href="#A" transform="matrix(1,0,0,1,445,925) translate(82.15 88.57500000000002)"/><use xlink:href="#s" transform="matrix(1,0,0,1,445,925) translate(112.15 88.57500000000002)"/><use xlink:href="#B" transform="matrix(1,0,0,1,445,925) translate(152.05 88.57500000000002)"/><use xlink:href="#C" transform="matrix(1,0,0,1,445,925) translate(190.95 88.57500000000002)"/><use xlink:href="#n" transform="matrix(1,0,0,1,445,925) translate(28.650000000000006 110.17500000000001)"/><use xlink:href="#D" transform="matrix(1,0,0,1,445,925) translate(59.60000000000001 110.17500000000001)"/><use xlink:href="#E" transform="matrix(1,0,0,1,445,925) translate(134.55 110.17500000000001)"/><use xlink:href="#F" transform="matrix(1,0,0,1,445,925) translate(154.55 110.17500000000001)"/><use xlink:href="#G" transform="matrix(1,0,0,1,445,925) translate(200.4 110.17500000000001)"/><use xlink:href="#H" transform="matrix(1,0,0,1,445,925) translate(47.150000000000006 131.775)"/><use xlink:href="#I" transform="matrix(1,0,0,1,445,925) translate(114 131.775)"/><use xlink:href="#J" transform="matrix(1,0,0,1,445,925) translate(161.95 131.775)"/></g><path d="M562 297.3h78v551.8h60.5" stroke="#000" stroke-width="2" fill="none"/><path d="M562.03 298.3H561v-2h1.03z"/><path d="M715.76 849.1l-14.26 4.64v-9.27z" stroke="#000" stroke-width="2"/><defs><path d="M140-251c81 0 123 46 123 126C263-46 219 4 140 4 59 4 17-45 17-125s42-126 123-126zm0 227c63 0 89-41 89-101s-29-99-89-99c-61 0-89 39-89 99S79-25 140-24" id="K"/><path d="M115-194c55 1 70 41 70 98S169 2 115 4C84 4 66-9 55-30l1 105H24l-1-265h31l2 30c10-21 28-34 59-34zm-8 174c40 0 45-34 45-75s-6-73-45-74c-42 0-51 32-51 76 0 43 10 73 51 73" id="L"/><path d="M100-194c63 0 86 42 84 106H49c0 40 14 67 53 68 26 1 43-12 49-29l28 8c-11 28-37 45-77 45C44 4 14-33 15-96c1-61 26-98 85-98zm52 81c6-60-76-77-97-28-3 7-6 17-6 28h103" id="M"/><path d="M117-194c89-4 53 116 60 194h-32v-121c0-31-8-49-39-48C34-167 62-67 57 0H25l-1-190h30c1 10-1 24 2 32 11-22 29-35 61-36" id="N"/><g id="a"><use transform="matrix(0.05,0,0,0.05,0,0)" xlink:href="#K"/><use transform="matrix(0.05,0,0,0.05,14,0)" xlink:href="#L"/><use transform="matrix(0.05,0,0,0.05,24,0)" xlink:href="#M"/><use transform="matrix(0.05,0,0,0.05,34,0)" xlink:href="#N"/></g><path d="M63-220v92h138v28H63V0H30v-248h175v28H63" id="O"/><path d="M100-194c62-1 85 37 85 99 1 63-27 99-86 99S16-35 15-95c0-66 28-99 85-99zM99-20c44 1 53-31 53-75 0-43-8-75-51-75s-53 32-53 75 10 74 51 75" id="P"/><path d="M24 0v-261h32V0H24" id="Q"/><path d="M85-194c31 0 48 13 60 33l-1-100h32l1 261h-30c-2-10 0-23-3-31C134-8 116 4 85 4 32 4 16-35 15-94c0-66 23-100 70-100zm9 24c-40 0-46 34-46 75 0 40 6 74 45 74 42 0 51-32 51-76 0-42-9-74-50-73" id="R"/><path d="M114-163C36-179 61-72 57 0H25l-1-190h30c1 12-1 29 2 39 6-27 23-49 58-41v29" id="S"/><g id="b"><use transform="matrix(0.05,0,0,0.05,0,0)" xlink:href="#O"/><use transform="matrix(0.05,0,0,0.05,10.950000000000001,0)" xlink:href="#P"/><use transform="matrix(0.05,0,0,0.05,20.950000000000003,0)" xlink:href="#Q"/><use transform="matrix(0.05,0,0,0.05,24.900000000000002,0)" xlink:href="#R"/><use transform="matrix(0.05,0,0,0.05,34.900000000000006,0)" xlink:href="#M"/><use transform="matrix(0.05,0,0,0.05,44.900000000000006,0)" xlink:href="#S"/></g><path d="M137 0h-34L2-248h35l83 218 83-218h36" id="T"/><path d="M24-231v-30h32v30H24zM24 0v-190h32V0H24" id="U"/><g id="c"><use transform="matrix(0.05,0,0,0.05,0,0)" xlink:href="#T"/><use transform="matrix(0.05,0,0,0.05,11.65,0)" xlink:href="#U"/><use transform="matrix(0.05,0,0,0.05,15.600000000000001,0)" xlink:href="#R"/><use transform="matrix(0.05,0,0,0.05,25.6,0)" xlink:href="#M"/><use transform="matrix(0.05,0,0,0.05,35.6,0)" xlink:href="#P"/></g><path d="M30-248c87 1 191-15 191 75 0 78-77 80-158 76V0H30v-248zm33 125c57 0 124 11 124-50 0-59-68-47-124-48v98" id="V"/><path d="M141-36C126-15 110 5 73 4 37 3 15-17 15-53c-1-64 63-63 125-63 3-35-9-54-41-54-24 1-41 7-42 31l-33-3c5-37 33-52 76-52 45 0 72 20 72 64v82c-1 20 7 32 28 27v20c-31 9-61-2-59-35zM48-53c0 20 12 33 32 33 41-3 63-29 60-74-43 2-92-5-92 41" id="W"/><path d="M179-190L93 31C79 59 56 82 12 73V49c39 6 53-20 64-50L1-190h34L92-34l54-156h33" id="X"/><g id="d"><use transform="matrix(0.05,0,0,0.05,0,0)" xlink:href="#V"/><use transform="matrix(0.05,0,0,0.05,12,0)" xlink:href="#Q"/><use transform="matrix(0.05,0,0,0.05,15.949999999999998,0)" xlink:href="#W"/><use transform="matrix(0.05,0,0,0.05,25.950000000000003,0)" xlink:href="#X"/><use transform="matrix(0.05,0,0,0.05,34.95,0)" xlink:href="#M"/><use transform="matrix(0.05,0,0,0.05,44.95,0)" xlink:href="#S"/></g><path d="M212-179c-10-28-35-45-73-45-59 0-87 40-87 99 0 60 29 101 89 101 43 0 62-24 78-52l27 14C228-24 195 4 139 4 59 4 22-46 18-125c-6-104 99-153 187-111 19 9 31 26 39 46" id="Y"/><g id="e"><use transform="matrix(0.05,0,0,0.05,0,0)" xlink:href="#Y"/><use transform="matrix(0.05,0,0,0.05,12.950000000000001,0)" xlink:href="#Q"/><use transform="matrix(0.05,0,0,0.05,16.900000000000002,0)" xlink:href="#U"/><use transform="matrix(0.05,0,0,0.05,20.85,0)" xlink:href="#L"/></g><path d="M185-189c-5-48-123-54-124 2 14 75 158 14 163 119 3 78-121 87-175 55-17-10-28-26-33-46l33-7c5 56 141 63 141-1 0-78-155-14-162-118-5-82 145-84 179-34 5 7 8 16 11 25" id="Z"/><path d="M96-169c-40 0-48 33-48 73s9 75 48 75c24 0 41-14 43-38l32 2c-6 37-31 61-74 61-59 0-76-41-82-99-10-93 101-131 147-64 4 7 5 14 7 22l-32 3c-4-21-16-35-41-35" id="aa"/><path d="M59-47c-2 24 18 29 38 22v24C64 9 27 4 27-40v-127H5v-23h24l9-43h21v43h35v23H59v120" id="ab"/><g id="f"><use transform="matrix(0.05,0,0,0.05,0,0)" xlink:href="#Z"/><use transform="matrix(0.05,0,0,0.05,12,0)" xlink:href="#M"/><use transform="matrix(0.05,0,0,0.05,22,0)" xlink:href="#Q"/><use transform="matrix(0.05,0,0,0.05,25.950000000000003,0)" xlink:href="#M"/><use transform="matrix(0.05,0,0,0.05,35.95,0)" xlink:href="#aa"/><use transform="matrix(0.05,0,0,0.05,44.95,0)" xlink:href="#ab"/><use transform="matrix(0.05,0,0,0.05,49.95,0)" xlink:href="#P"/><use transform="matrix(0.05,0,0,0.05,59.95,0)" xlink:href="#S"/></g><g id="g"><use transform="matrix(0.05,0,0,0.05,0,0)" xlink:href="#V"/><use transform="matrix(0.05,0,0,0.05,12,0)" xlink:href="#Q"/><use transform="matrix(0.05,0,0,0.05,15.949999999999998,0)" xlink:href="#W"/><use transform="matrix(0.05,0,0,0.05,25.950000000000003,0)" xlink:href="#X"/></g><path d="M0 4l72-265h28L28 4H0" id="ac"/><use transform="matrix(0.05,0,0,0.05,0,0)" xlink:href="#ac" id="h"/><path d="M84 4C-5 8 30-112 23-190h32v120c0 31 7 50 39 49 72-2 45-101 50-169h31l1 190h-30c-1-10 1-25-2-33-11 22-28 36-60 37" id="ad"/><path d="M135-143c-3-34-86-38-87 0 15 53 115 12 119 90S17 21 10-45l28-5c4 36 97 45 98 0-10-56-113-15-118-90-4-57 82-63 122-42 12 7 21 19 24 35" id="ae"/><g id="i"><use transform="matrix(0.05,0,0,0.05,0,0)" xlink:href="#V"/><use transform="matrix(0.05,0,0,0.05,12,0)" xlink:href="#W"/><use transform="matrix(0.05,0,0,0.05,22,0)" xlink:href="#ad"/><use transform="matrix(0.05,0,0,0.05,32,0)" xlink:href="#ae"/><use transform="matrix(0.05,0,0,0.05,41,0)" xlink:href="#M"/></g><g id="j"><use transform="matrix(0.05,0,0,0.05,0,0)" xlink:href="#Y"/><use transform="matrix(0.05,0,0,0.05,12.950000000000001,0)" xlink:href="#P"/><use transform="matrix(0.05,0,0,0.05,22.950000000000003,0)" xlink:href="#N"/><use transform="matrix(0.05,0,0,0.05,32.95,0)" xlink:href="#ab"/><use transform="matrix(0.05,0,0,0.05,37.95,0)" xlink:href="#S"/><use transform="matrix(0.05,0,0,0.05,43.900000000000006,0)" xlink:href="#P"/><use transform="matrix(0.05,0,0,0.05,53.900000000000006,0)" xlink:href="#Q"/><use transform="matrix(0.05,0,0,0.05,57.85,0)" xlink:href="#ae"/></g><path d="M266 0h-40l-56-210L115 0H75L2-248h35L96-30l15-64 43-154h32l59 218 59-218h35" id="af"/><path d="M106-169C34-169 62-67 57 0H25v-261h32l-1 103c12-21 28-36 61-36 89 0 53 116 60 194h-32v-121c2-32-8-49-39-48" id="ag"/><g id="k"><use transform="matrix(0.05,0,0,0.05,0,0)" xlink:href="#af"/><use transform="matrix(0.05,0,0,0.05,16.95,0)" xlink:href="#ag"/><use transform="matrix(0.05,0,0,0.05,26.950000000000003,0)" xlink:href="#M"/><use transform="matrix(0.05,0,0,0.05,36.95,0)" xlink:href="#N"/></g><path d="M210-169c-67 3-38 105-44 169h-31v-121c0-29-5-50-35-48C34-165 62-65 56 0H25l-1-190h30c1 10-1 24 2 32 10-44 99-50 107 0 11-21 27-35 58-36 85-2 47 119 55 194h-31v-121c0-29-5-49-35-48" id="ah"/><g id="l"><use transform="matrix(0.05,0,0,0.05,0,0)" xlink:href="#ah"/><use transform="matrix(0.05,0,0,0.05,14.950000000000001,0)" xlink:href="#ad"/><use transform="matrix(0.05,0,0,0.05,24.950000000000003,0)" xlink:href="#Q"/><use transform="matrix(0.05,0,0,0.05,28.900000000000002,0)" xlink:href="#ab"/><use transform="matrix(0.05,0,0,0.05,33.900000000000006,0)" xlink:href="#U"/><use transform="matrix(0.05,0,0,0.05,37.85000000000001,0)" xlink:href="#L"/><use transform="matrix(0.05,0,0,0.05,47.85000000000001,0)" xlink:href="#Q"/><use transform="matrix(0.05,0,0,0.05,51.80000000000001,0)" xlink:href="#M"/></g><g id="m"><use transform="matrix(0.05,0,0,0.05,0,0)" xlink:href="#aa"/><use transform="matrix(0.05,0,0,0.05,9,0)" xlink:href="#Q"/><use transform="matrix(0.05,0,0,0.05,12.949999999999998,0)" xlink:href="#U"/><use transform="matrix(0.05,0,0,0.05,16.9,0)" xlink:href="#L"/><use transform="matrix(0.05,0,0,0.05,26.899999999999995,0)" xlink:href="#ae"/></g><g id="n"><use transform="matrix(0.05,0,0,0.05,0,0)" xlink:href="#W"/><use transform="matrix(0.05,0,0,0.05,10,0)" xlink:href="#S"/><use transform="matrix(0.05,0,0,0.05,15.949999999999998,0)" xlink:href="#M"/></g><path d="M177-190C167-65 218 103 67 71c-23-6-38-20-44-43l32-5c15 47 100 32 89-28v-30C133-14 115 1 83 1 29 1 15-40 15-95c0-56 16-97 71-98 29-1 48 16 59 35 1-10 0-23 2-32h30zM94-22c36 0 50-32 50-73 0-42-14-75-50-75-39 0-46 34-46 75s6 73 46 73" id="ai"/><g id="o"><use transform="matrix(0.05,0,0,0.05,0,0)" xlink:href="#W"/><use transform="matrix(0.05,0,0,0.05,10,0)" xlink:href="#Q"/><use transform="matrix(0.05,0,0,0.05,13.949999999999998,0)" xlink:href="#U"/><use transform="matrix(0.05,0,0,0.05,17.9,0)" xlink:href="#ai"/><use transform="matrix(0.05,0,0,0.05,27.899999999999995,0)" xlink:href="#N"/><use transform="matrix(0.05,0,0,0.05,37.9,0)" xlink:href="#M"/><use transform="matrix(0.05,0,0,0.05,47.9,0)" xlink:href="#R"/></g><g id="p"><use transform="matrix(0.05,0,0,0.05,0,0)" xlink:href="#ae"/><use transform="matrix(0.05,0,0,0.05,9,0)" xlink:href="#U"/><use transform="matrix(0.05,0,0,0.05,12.949999999999998,0)" xlink:href="#R"/><use transform="matrix(0.05,0,0,0.05,22.95,0)" xlink:href="#M"/></g><path d="M115-194c53 0 69 39 70 98 0 66-23 100-70 100C84 3 66-7 56-30L54 0H23l1-261h32v101c10-23 28-34 59-34zm-8 174c40 0 45-34 45-75 0-40-5-75-45-74-42 0-51 32-51 76 0 43 10 73 51 73" id="aj"/><g id="q"><use transform="matrix(0.05,0,0,0.05,0,0)" xlink:href="#aj"/><use transform="matrix(0.05,0,0,0.05,10,0)" xlink:href="#X"/></g><path d="M68-38c1 34 0 65-14 84H32c9-13 17-26 17-46H33v-38h35" id="ak"/><g id="r"><use transform="matrix(0.05,0,0,0.05,0,0)" xlink:href="#ae"/><use transform="matrix(0.05,0,0,0.05,9,0)" xlink:href="#U"/><use transform="matrix(0.05,0,0,0.05,12.949999999999998,0)" xlink:href="#R"/><use transform="matrix(0.05,0,0,0.05,22.95,0)" xlink:href="#M"/><use transform="matrix(0.05,0,0,0.05,32.95,0)" xlink:href="#ak"/></g><g id="s"><use transform="matrix(0.05,0,0,0.05,0,0)" xlink:href="#ab"/><use transform="matrix(0.05,0,0,0.05,5,0)" xlink:href="#ag"/><use transform="matrix(0.05,0,0,0.05,15,0)" xlink:href="#M"/><use transform="matrix(0.05,0,0,0.05,25,0)" xlink:href="#U"/><use transform="matrix(0.05,0,0,0.05,28.950000000000003,0)" xlink:href="#S"/></g><g id="t"><use transform="matrix(0.05,0,0,0.05,0,0)" xlink:href="#L"/><use transform="matrix(0.05,0,0,0.05,10,0)" xlink:href="#Q"/><use transform="matrix(0.05,0,0,0.05,13.949999999999998,0)" xlink:href="#W"/><use transform="matrix(0.05,0,0,0.05,23.95,0)" xlink:href="#X"/></g><g id="u"><use transform="matrix(0.05,0,0,0.05,0,0)" xlink:href="#L"/><use transform="matrix(0.05,0,0,0.05,10,0)" xlink:href="#W"/><use transform="matrix(0.05,0,0,0.05,20,0)" xlink:href="#ad"/><use transform="matrix(0.05,0,0,0.05,30,0)" xlink:href="#ae"/><use transform="matrix(0.05,0,0,0.05,39,0)" xlink:href="#M"/></g><g id="v"><use transform="matrix(0.05,0,0,0.05,0,0)" xlink:href="#aa"/><use transform="matrix(0.05,0,0,0.05,9,0)" xlink:href="#P"/><use transform="matrix(0.05,0,0,0.05,19,0)" xlink:href="#N"/><use transform="matrix(0.05,0,0,0.05,29,0)" xlink:href="#ab"/><use transform="matrix(0.05,0,0,0.05,34,0)" xlink:href="#S"/><use transform="matrix(0.05,0,0,0.05,39.95,0)" xlink:href="#P"/><use transform="matrix(0.05,0,0,0.05,49.95,0)" xlink:href="#Q"/><use transform="matrix(0.05,0,0,0.05,53.900000000000006,0)" xlink:href="#ae"/></g><g id="w"><use transform="matrix(0.05,0,0,0.05,0,0)" xlink:href="#ae"/><use transform="matrix(0.05,0,0,0.05,9,0)" xlink:href="#ag"/><use transform="matrix(0.05,0,0,0.05,19,0)" xlink:href="#P"/><use transform="matrix(0.05,0,0,0.05,29,0)" xlink:href="#ad"/><use transform="matrix(0.05,0,0,0.05,39,0)" xlink:href="#Q"/><use transform="matrix(0.05,0,0,0.05,42.95,0)" xlink:href="#R"/></g><g id="x"><use transform="matrix(0.05,0,0,0.05,0,0)" xlink:href="#aj"/><use transform="matrix(0.05,0,0,0.05,10,0)" xlink:href="#M"/></g><path d="M143 0L79-87 56-68V0H24v-261h32v163l83-92h37l-77 82L181 0h-38" id="al"/><g id="y"><use transform="matrix(0.05,0,0,0.05,0,0)" xlink:href="#Q"/><use transform="matrix(0.05,0,0,0.05,3.95,0)" xlink:href="#P"/><use transform="matrix(0.05,0,0,0.05,13.949999999999998,0)" xlink:href="#aa"/><use transform="matrix(0.05,0,0,0.05,22.95,0)" xlink:href="#al"/><use transform="matrix(0.05,0,0,0.05,31.950000000000003,0)" xlink:href="#M"/><use transform="matrix(0.05,0,0,0.05,41.95,0)" xlink:href="#R"/></g><g id="z"><use transform="matrix(0.05,0,0,0.05,0,0)" xlink:href="#ab"/><use transform="matrix(0.05,0,0,0.05,5,0)" xlink:href="#P"/><use transform="matrix(0.05,0,0,0.05,15,0)" xlink:href="#ai"/><use transform="matrix(0.05,0,0,0.05,25,0)" xlink:href="#M"/><use transform="matrix(0.05,0,0,0.05,35,0)" xlink:href="#ab"/><use transform="matrix(0.05,0,0,0.05,40,0)" xlink:href="#ag"/><use transform="matrix(0.05,0,0,0.05,50,0)" xlink:href="#M"/><use transform="matrix(0.05,0,0,0.05,60,0)" xlink:href="#S"/><use transform="matrix(0.05,0,0,0.05,64.95,0)" xlink:href="#ak"/></g><g id="A"><use transform="matrix(0.05,0,0,0.05,0,0)" xlink:href="#aj"/><use transform="matrix(0.05,0,0,0.05,10,0)" xlink:href="#ad"/><use transform="matrix(0.05,0,0,0.05,20,0)" xlink:href="#ab"/></g><g id="B"><use transform="matrix(0.05,0,0,0.05,0,0)" xlink:href="#ab"/><use transform="matrix(0.05,0,0,0.05,5,0)" xlink:href="#U"/><use transform="matrix(0.05,0,0,0.05,8.95,0)" xlink:href="#ah"/><use transform="matrix(0.05,0,0,0.05,23.9,0)" xlink:href="#M"/></g><g id="C"><use transform="matrix(0.05,0,0,0.05,0,0)" xlink:href="#ae"/><use transform="matrix(0.05,0,0,0.05,9,0)" xlink:href="#Q"/><use transform="matrix(0.05,0,0,0.05,12.949999999999998,0)" xlink:href="#U"/><use transform="matrix(0.05,0,0,0.05,16.9,0)" xlink:href="#R"/><use transform="matrix(0.05,0,0,0.05,26.899999999999995,0)" xlink:href="#M"/><use transform="matrix(0.05,0,0,0.05,36.9,0)" xlink:href="#S"/><use transform="matrix(0.05,0,0,0.05,42.85,0)" xlink:href="#ae"/></g><g id="D"><use transform="matrix(0.05,0,0,0.05,0,0)" xlink:href="#ae"/><use transform="matrix(0.05,0,0,0.05,9,0)" xlink:href="#M"/><use transform="matrix(0.05,0,0,0.05,19,0)" xlink:href="#L"/><use transform="matrix(0.05,0,0,0.05,29,0)" xlink:href="#W"/><use transform="matrix(0.05,0,0,0.05,39,0)" xlink:href="#S"/><use transform="matrix(0.05,0,0,0.05,44.95,0)" xlink:href="#W"/><use transform="matrix(0.05,0,0,0.05,54.95,0)" xlink:href="#ab"/><use transform="matrix(0.05,0,0,0.05,59.95,0)" xlink:href="#M"/></g><g id="E"><use transform="matrix(0.05,0,0,0.05,0,0)" xlink:href="#ab"/><use transform="matrix(0.05,0,0,0.05,5,0)" xlink:href="#P"/></g><path d="M206 0h-36l-40-164L89 0H53L-1-190h32L70-26l43-164h34l41 164 42-164h31" id="am"/><g id="F"><use transform="matrix(0.05,0,0,0.05,0,0)" xlink:href="#W"/><use transform="matrix(0.05,0,0,0.05,10,0)" xlink:href="#Q"/><use transform="matrix(0.05,0,0,0.05,13.949999999999998,0)" xlink:href="#Q"/><use transform="matrix(0.05,0,0,0.05,17.9,0)" xlink:href="#P"/><use transform="matrix(0.05,0,0,0.05,27.899999999999995,0)" xlink:href="#am"/></g><path d="M101-234c-31-9-42 10-38 44h38v23H63V0H32v-167H5v-23h27c-7-52 17-82 69-68v24" id="an"/><g id="G"><use transform="matrix(0.05,0,0,0.05,0,0)" xlink:href="#an"/><use transform="matrix(0.05,0,0,0.05,5,0)" xlink:href="#P"/><use transform="matrix(0.05,0,0,0.05,15,0)" xlink:href="#S"/></g><g id="H"><use transform="matrix(0.05,0,0,0.05,0,0)" xlink:href="#W"/><use transform="matrix(0.05,0,0,0.05,10,0)" xlink:href="#Q"/><use transform="matrix(0.05,0,0,0.05,13.949999999999998,0)" xlink:href="#U"/><use transform="matrix(0.05,0,0,0.05,17.9,0)" xlink:href="#ai"/><use transform="matrix(0.05,0,0,0.05,27.899999999999995,0)" xlink:href="#N"/><use transform="matrix(0.05,0,0,0.05,37.9,0)" xlink:href="#U"/><use transform="matrix(0.05,0,0,0.05,41.85,0)" xlink:href="#N"/><use transform="matrix(0.05,0,0,0.05,51.85,0)" xlink:href="#ai"/></g><path d="M108 0H70L1-190h34L89-25l56-165h34" id="ao"/><g id="I"><use transform="matrix(0.05,0,0,0.05,0,0)" xlink:href="#ao"/><use transform="matrix(0.05,0,0,0.05,9,0)" xlink:href="#U"/><use transform="matrix(0.05,0,0,0.05,12.949999999999998,0)" xlink:href="#R"/><use transform="matrix(0.05,0,0,0.05,22.95,0)" xlink:href="#M"/><use transform="matrix(0.05,0,0,0.05,32.95,0)" xlink:href="#P"/></g><path d="M33 0v-38h34V0H33" id="ap"/><g id="J"><use transform="matrix(0.05,0,0,0.05,0,0)" xlink:href="#aa"/><use transform="matrix(0.05,0,0,0.05,9,0)" xlink:href="#Q"/><use transform="matrix(0.05,0,0,0.05,12.949999999999998,0)" xlink:href="#U"/><use transform="matrix(0.05,0,0,0.05,16.9,0)" xlink:href="#L"/><use transform="matrix(0.05,0,0,0.05,26.899999999999995,0)" xlink:href="#ae"/><use transform="matrix(0.05,0,0,0.05,35.9,0)" xlink:href="#ap"/></g></defs></g></svg>